<?xml version="1.0" encoding="utf-8"?>
<!-- Generator: Adobe Illustrator 16.0.0, SVG Export Plug-In . SVG Version: 6.00 Build 0)  -->
<!DOCTYPE svg PUBLIC "-//W3C//DTD SVG 1.1//EN" "http://www.w3.org/Graphics/SVG/1.1/DTD/svg11.dtd">
<svg version="1.1" id="f1903550-5374-4fc8-959e-1f31e4981ba4"
	 xmlns="http://www.w3.org/2000/svg" xmlns:xlink="http://www.w3.org/1999/xlink" x="0px" y="0px" width="1017.23px"
	 height="708.309px" viewBox="0 0 1017.23 708.309" enable-background="new 0 0 1017.23 708.309" xml:space="preserve">
<title>uploading</title>
<path opacity="0.1" fill="#FFB800" enable-background="new    " d="M594.24,111.4c-64.721-2.25-126.36-23.14-185.23-46
	S291.85,17.21,228.68,5.15c-40.63-7.79-87.09-8.89-119.83,12.89c-31.5,21-41.68,57.15-47.16,90.72
	c-4.11,25.271-6.54,51.85,4.75,75.5c7.83,16.42,21.74,30.22,31.36,45.95c33.46,54.72,9.81,122.2-26.46,175.63
	c-17,25.061-36.74,49-49.87,75.66c-13.13,26.66-19.2,57.25-7.72,84.469c11.39,27,38.52,47.24,67.9,61.49
	c59.69,28.941,130,37.23,198.62,41.92c151.82,10.391,304.46,5.891,456.68,1.391c56.34-1.67,112.92-3.359,168.34-12.07
	c30.78-4.84,62.56-12.52,84.899-31c28.36-23.529,35.391-63.379,16.391-92.879c-31.88-49.49-120-61.791-142.311-114.9
	c-12.27-29.23,0.33-61.801,18.15-88.911c38.24-58.17,102.33-109.19,105.71-175.68c2.32-45.66-28.49-91.39-76.13-113
	c-49.94-22.65-119.18-19.8-156,17.69C718.04,98.53,651.38,113.38,594.24,111.4z"/>
<g opacity="0.1">
	<path fill="#FFB800" d="M86.35,328.36c0,0-74.74-31.44-84.57,25.25c0,0-5.11,8.84,2,16.141c0,0,1.53-3.92,8.75,0.129
		c2.579,1.427,5.318,2.541,8.16,3.32c3.838,1.059,7.917,0.842,11.62-0.619l0,0c0,0,24.59-1.33,45.27-33.5c0,0,8.87-5.48,9.31-7.54
		l-14.82,1c0,0,1.14,10.85-5,17.36c0,0,5.44-16.84,2.83-17.31c-0.53-0.1-7.83,0.86-7.83,0.86s1.89,18.87-8,28.63
		c0,0,9.18-19.19,5.19-28.291l-10.94,2.11c0,0,3,19.851-7.82,31.39c0,0,8.9-20.399,5.46-30.76l-10.47,3.52c0,0,2.52,19.41-6.53,29
		c0,0,7.9-24.609,4.18-28c0,0-9.42,3.82-11.43,6c0,0,1.49,14-4.26,19.05c0,0,3.53-17,1.78-17.7c0,0-10.94,8.24-14.28,15.351
		c0,0,4.16-10.86,12.91-17c0,0-7.35-1.24-13,1.83c0,0,3.78-7.21,15.65-3.79c0,0,8.79-6.09,10.55-6c0,0-11.23-5-19.34-4.38
		c0,0,8.7-5,22.08,3.35l10.45-3.77c0,0-14.5-7.43-21.76-7.4c0,0,9.66-3.74,24.47,6.66l10.7-2.18c0,0-12-7.35-20.09-9.06
		c0,0,9.7-1.54,23.18,8.55l7.31-0.61c0,0-8.85-5.22-11.53-6.49c-2.68-1.27-2.56-2.09-2.56-2.09c6.375,1.108,12.316,3.968,17.16,8.26
		C71.13,329.63,86.29,329.29,86.35,328.36z"/>
</g>
<g opacity="0.1">
	<path fill="#FFB800" d="M83.61,272c0,0-26.51-61.27-64.63-33.17c0,0-8.06,2.34-8,10.7c0,0,3.14-1.46,5.13,5.07
		c0.73,2.316,1.737,4.536,3,6.61c1.669,2.819,4.216,5.015,7.25,6.25l0,0c0,0,15.37,13.22,46,5.89c0,0,8.4,1.79,9.83,0.83l-9.36-7.87
		c0,0-5.51,7.1-12.89,7.44c0,0,12.83-6.9,11.55-8.67c-0.26-0.36-5.15-3.94-5.15-3.94s-9.62,12.28-21,12.47
		c0,0,16.39-6.18,19.2-13.85l-7.7-5c0,0-9.54,13.49-22.53,14.19c0,0,16.91-7.05,20.77-15.17l-8.23-3.87c0,0-9.56,13-20.37,13.49
		c0,0,18.72-10.12,18.43-14.25c0,0-7.77-3.1-10.24-2.92c0,0-7.07,9.15-13.38,8.89c0,0,11.79-8.09,11.15-9.5c0,0-11.2-1.34-17.23,1
		c0,0,8.66-4.08,17.35-2.74c0,0-3.66-4.93-8.75-6.3c0,0,6.36-2.13,11.46,6.65c0,0,8.68,1.4,9.7,2.44c0,0-3.81-9.39-9-13.62
		c0,0,8,2,11.2,14.57l8.36,3.71c0,0-4.38-12.68-8.72-16.79c0,0,7.87,3.28,10.75,17.9l7.6,4.79c0,0-2.94-11.2-6.77-16.83
		c0,0,6.64,4.62,8.89,18.29l4.7,3.8c0,0-2.29-8.14-3.16-10.42c-0.87-2.28-0.33-2.7-0.33-2.7c3.159,4.288,5.06,9.371,5.49,14.68
		C73.98,264.05,83.02,272.51,83.61,272z"/>
</g>
<linearGradient id="SVGID_1_" gradientUnits="userSpaceOnUse" x1="815.8691" y1="-94.8364" x2="815.8691" y2="416.7734" gradientTransform="matrix(1 0 0 -1 -91.3901 613.46)">
	<stop  offset="0" style="stop-color:#808080;stop-opacity:0.25"/>
	<stop  offset="0.54" style="stop-color:#808080;stop-opacity:0.12"/>
	<stop  offset="1" style="stop-color:#808080;stop-opacity:0.1"/>
</linearGradient>
<path fill="url(#SVGID_1_)" d="M933.27,667.151c-1-3.621-2-7.291-4-10.441c-1.854-2.672-4.062-5.084-6.56-7.17
	c-7.25-6.59-16.16-13.279-25.77-11.609c-2.98,0.65-5.86,1.701-8.561,3.119c-1.399,0.65-2.81,1.301-4.25,1.852
	c-4.057,1.693-8.54,2.086-12.83,1.119c-2.2-0.59-4.25-1.65-6.42-2.311c-1.034-0.309-2.091-0.535-3.16-0.68
	c2.096-0.947,4.132-2.02,6.101-3.209c10.79-6.67,19.399-18.67,18.189-31.371c-0.399-4.299-1.88-8.41-3.34-12.459
	c-1.28-3.541-2.563-7.084-3.85-10.631c-1.66-4.609-3.37-9.301-6.41-13.129c-3.38-4.262-8.18-7.15-13.141-9.311
	c-10.659-4.631-22.31-6.26-33.81-7.84l-0.8-0.111V428.731c0.027-4.42-3.532-8.023-7.95-8.051c-0.017,0-0.033,0-0.05,0h-15.13
	c-0.667-4.08-1.334-8.156-2-12.23c-1.91-11.609-3.88-23.449-9.23-33.91c-3.5-6.85-9.08-13.369-16.59-14.72
	c-1.479-0.138-2.932-0.474-4.32-1c-2.2-1.079-3.399-3.479-5.1-5.26c-4.36-4.57-11.45-4.64-17.3-7c-5.16-2.05-9.38-5.92-14.08-8.89
	c-4.7-2.97-10.55-5.09-15.76-3.15c0,0.38-0.07,0.75-0.11,1.13l-3.34-1.5c-3.601-1.66-7.28-3.38-10.17-6.12
	c-3.72-3.51-5.7-8.14-7.24-13.08c-0.16-0.52-0.31-1-0.46-1.55c6.391-6.53,10.717-14.797,12.439-23.77
	c0.271,0.87,0.551,1.75,0.82,2.63c0.246,0.895,0.581,1.762,1,2.59c0.139,0.273,0.296,0.538,0.47,0.79
	c0.33,0.491,0.743,0.92,1.221,1.27c0.474,0.345,1.028,0.562,1.609,0.63c0.279,0.04,0.562,0.04,0.841,0
	c1.534-0.324,2.799-1.405,3.359-2.87c0.159-0.393,0.277-0.802,0.35-1.22c0.039-0.252,0.063-0.506,0.07-0.76c0-0.08,0-0.16,0-0.24
	s0-0.35,0-0.52s0-0.19,0-0.28c0-0.09,0-0.34,0-0.5v-0.26c0-0.2-0.06-0.4-0.1-0.59c-0.04-0.19,0-0.11,0-0.16
	c-0.05-0.26-0.11-0.51-0.16-0.77c-0.005-0.057-0.005-0.113,0-0.17l-0.15-0.63l-0.09-0.38v-0.1l0,0c-0.1-0.39-0.189-0.79-0.28-1.19
	c-0.727-3.474-0.912-7.039-0.55-10.57c0.603-5.179,1.559-10.311,2.86-15.36l0.21-0.91l0.24-1.06c0.16-0.72,0.31-1.44,0.46-2.16l0,0
	c0.13-0.61,0.25-1.23,0.359-1.85c0.11-0.62,0.19-1.09,0.271-1.64c0-0.07,0-0.13,0-0.2c0.611-3.727,0.775-7.514,0.49-11.28l0,0
	c-0.471-5.23-2.091-10.18-5.65-14.13c-2.51-2.79-5.81-4.85-8.14-7.78c-2.19-2.75-3.42-6.13-5.681-8.82
	c-6.25-7.46-22.279-13.21-32.12-14.21c-11.27-1.14-29.479,1.74-38.56,8.4c-3.36,2.46-5.66,6-8,9.37c-4.3,6.26-9.19,12.5-16.08,16
	c-2.61,1.32-5.59,2.32-7.32,4.62c-1.045,1.56-1.729,3.333-2,5.19c-1.329,6.518-2.019,13.149-2.06,19.8
	c-0.149,2.909,0.223,5.822,1.1,8.6c0.141,0.38,0.311,0.77,0.49,1.14l0,0c0.16,0.33,0.34,0.66,0.53,1l0.12,0.21
	c1.207,1.733,2.279,3.555,3.21,5.45c0.22,0.534,0.381,1.091,0.479,1.66c0.172,1.468,0.077,2.955-0.28,4.39l0,0
	c0,0.22-0.079,0.43-0.13,0.64l-0.09,0.46c0,0.14,0,0.29-0.08,0.43c-0.08,0.433-0.149,0.863-0.21,1.29c0,0.3-0.06,0.61-0.07,0.92
	c-0.07,1.239,0.167,2.476,0.69,3.6c0.132,0.268,0.289,0.522,0.47,0.76c0.358,0.48,0.82,0.873,1.351,1.15
	c1.191,0.448,2.435,0.743,3.7,0.88c3.739,0.84,6.079,3.7,7.6,7.21c0.337,0.788,0.634,1.592,0.89,2.41
	c0.624,2.052,1.092,4.147,1.4,6.27c1.7-0.09,2.689-1.59,3.29-3.23c0.188-0.541,0.345-1.091,0.47-1.65c0.23-1.05,0.46-2.1,0.7-3.15
	c3.947,8.375,10.306,15.381,18.26,20.12c0.28,0.82,0.55,1.65,0.8,2.49c1.311,4.53,1.94,9.28-0.33,13.24
	c-1.62,2.81-4.35,4.55-7.39,5.75c-0.438-0.588-1.001-1.07-1.65-1.41c-2.64-1.32-5.8,0.29-8,2.26c-4,3.62-7.26,8.81-12.529,10
	c-1.9,0.44-4,0.35-5.591,1.509c-1.047,0.985-1.922,2.138-2.59,3.41c-2.322,3.333-6.181,5.254-10.239,5.101
	c-1.83-0.091-4-0.511-5.25,0.829c-0.931,1-1,2.591-2,3.541c-1.351,1.32-3.54,0.67-5.421,0.59c-2.745,0.007-5.366,1.143-7.25,3.141
	c-0.118-4.035-1.662-7.897-4.359-10.9c-2.7-2.78-6.45-4.211-9.65-6.39c-8-5.44-12-15-16.17-23.76c-4.17-8.76-9.67-18-18.77-21.19
	c-2.091-0.74-5-0.8-5.94,1.23c-0.319,0.847-0.372,1.772-0.15,2.65c0.881,4.66,4.2,8.4,7.07,12.15c4.83,6.32,8.88,14.05,7.71,21.95
	c-1.37,9.351-9.7,16.61-10.7,26c-0.439,4.14,0.61,8.3,0.601,12.46c0,2.6-0.41,5.23,0.149,7.76c0.595,1.922,1.3,3.809,2.11,5.65
	c0.901,3.021,1.366,6.156,1.38,9.311c0.707,13.252,1.41,26.51,2.11,39.77c0.53,9.891-1.63,19.65-3.811,29.379
	c-2.702,5.77-4.801,11.801-6.26,18c-2.46,10.83-2.53,22.371,1,32.91c1.89,5.73,4.79,11.102,6.34,16.932
	c0,0.129,0.061,0.25,0.09,0.369c0.15,1.24,0.32,2.48,0.551,3.711c0.284,1.42,0.654,2.822,1.109,4.199
	c0.454,2.371,1.192,4.678,2.2,6.869c1.402,2.787,3.462,5.189,6,7c-1.439,2.82-3.77,5.09-5.32,7.852
	c-2.699,4.779-2.81,10.648-1.83,16.068c1.891,10.461,7.54,19.811,15,27.41c-0.333-0.02-0.666-0.02-1,0
	c-2.439,0.27-4.783,1.109-6.84,2.451c-15.79,9.229-24.819,29-21.52,47.1c0.649,3.539,1.779,7.119,4.14,9.811
	c1.965,2.141,4.49,3.689,7.29,4.469c1.749,0.527,3.549,0.861,5.37,1c12.31,1,24.229-4.709,36.57-5.189
	c4.091-0.064,8.183,0.125,12.25,0.57c5.939,0.492,11.893,0.807,17.859,0.939c9.69,0.23,15.15-2.35,21.34-9.6
	c1.521-1.799,2.79-3.797,3.771-5.939c5.26-0.301,11.07-0.762,15.28-1.111l0.06,0.59c0.23,2,0.58,4.301,2.18,5.57
	c0.904,0.613,1.926,1.029,3,1.221c10.11,2.49,20.341,5,30.74,5c4.884-0.102,9.759-0.479,14.601-1.131l18.3-2.109
	c5.325,0.686,10.581,1.83,15.71,3.42c5.28,1.801,10.22,4.471,15.38,6.57c12,4.869,24.92,6.609,37.71,8.311
	c2.18,0.289,4.68,0.488,6.3-1c2.08-2,1.38-5.352,0.8-8.15c-0.239-1.141-0.42-2.301-0.569-3.461c8.633,2.27,17.078,5.201,25.26,8.77
	l1.439,0.631c0.41,2.18,2.431,3.93,4.36,6.279c0.634,0.99,1.375,1.904,2.21,2.73c0.952,0.627,2.038,1.021,3.17,1.15
	c13.515,2.516,27.314,3.139,41,1.85c2.8-0.381,5.631-0.477,8.45-0.289c2.07,0.279,4.111,0.742,6.1,1.379l11.58,3.311
	c8.53,2.449,17.28,4.92,26.13,4.369c1.798-0.117,3.583-0.375,5.341-0.77c7-1.619,13.529-5.539,16.89-11.84
	C938.03,687.04,935.84,676.51,933.27,667.151z M593.61,510.741c-0.356,4.336-1.488,8.572-3.341,12.51c-1.239,2.51-2.84,4.82-4,7.34
	c-1.1,2.279-1.92,6.59-2.409,11.32c-0.601-0.1-1.21-0.191-1.811-0.26c0.891-3.121,1.561-6.32,2.45-9.451
	C586.61,524.76,590.08,517.731,593.61,510.741z"/>
<path fill="#FBBEBE" d="M609.02,664.54c-2.109-4.799-4.109-10.32-2-15.119c1.378-2.828,3.744-5.051,6.65-6.25
	c2.876-1.174,5.908-1.922,9-2.221c9.704-1.273,19.524-1.406,29.26-0.4c0.71,5.621-0.79,11.32-2.08,16.75c-1.17,5-1.84,5.74-7,6
	C639.51,663.481,609.81,666.309,609.02,664.54z"/>
<ellipse fill="#464353" cx="698.07" cy="592.161" rx="143" ry="40"/>
<ellipse opacity="0.1" enable-background="new    " cx="698.07" cy="592.161" rx="143" ry="40"/>
<path fill="#FBBEBE" d="M723.71,381c-4.901,9.471-13.043,16.867-22.94,20.84c-5.827,2.123-11.959,3.291-18.159,3.459
	c-6.79,0.311-13.721-0.129-20.101-2.449c-8.56-3.1-15.67-9.439-21-16.83s-9-15.83-12.189-24.34c-1.681-4.43-3.28-9.15-2.49-13.83
	c5.15-1.17,10.79-2.89,13.45-7.46c2.27-3.92,1.64-8.62,0.33-13.1c-0.37-1.27-0.8-2.53-1.23-3.74c-1-2.9-4.45-8.41-2.05-10.89
	c1.53-1.57,7.94-2.37,10.15-3.39c6.81-3.14,13.09-7.68,20.569-9.17c6.471-1.29,13.15-0.08,19.61,1.26
	c0.856,0.125,1.68,0.42,2.42,0.87c0.844,0.711,1.468,1.647,1.8,2.7c1.84,4.48,2.92,9.43,4.4,14.1c1.54,4.89,3.52,9.48,7.229,12.95
	c2.891,2.71,6.57,4.41,10.17,6.06l8.86,4.06c1.576,0.59,3.006,1.515,4.19,2.71c1.158,1.592,1.851,3.476,2,5.44
	C730.317,360.773,728.562,371.528,723.71,381z"/>
<path opacity="0.1" enable-background="new    " d="M696.24,319.03c-14.505,15.088-37.367,18.482-55.63,8.26
	c-0.37-1.27-0.801-2.53-1.23-3.74c-1-2.9-4.45-8.41-2.05-10.89c1.53-1.57,7.939-2.37,10.15-3.39c6.81-3.14,13.09-7.68,20.569-9.17
	c6.47-1.29,13.15-0.08,19.61,1.26c0.856,0.125,1.68,0.42,2.42,0.87c0.844,0.711,1.468,1.647,1.8,2.7
	C693.68,309.41,694.76,314.36,696.24,319.03z"/>
<circle fill="#FBBEBE" cx="663.07" cy="285.16" r="46"/>
<path fill="#F86D70" d="M803.22,434.45l-3.78-22.9c-1.909-11.49-3.88-23.199-9.22-33.549c-3.51-6.78-9.08-13.24-16.59-14.58
	c-1.479-0.133-2.934-0.469-4.32-1c-2.199-1.061-3.399-3.44-5.09-5.2c-4.359-4.52-11.46-4.59-17.3-6.89c-5.16-2-9.38-5.85-14.08-8.79
	s-10.55-5-15.75-3.12c-0.84,8.95-1.729,18.1-5.53,26.25c-9.165,19.662-32.535,28.171-52.197,19.006
	c-2.497-1.164-4.864-2.588-7.063-4.246c-8.91-6.71-14.62-17.061-17.28-27.89c-0.649-2.64-1.39-5.67-3.819-6.88
	c-2.63-1.32-5.79,0.28-8,2.22c-4.051,3.59-7.271,8.73-12.53,9.94c-1.9,0.44-4,0.351-5.58,1.5c-1.05,0.97-1.929,2.108-2.6,3.37
	c-2.339,3.305-6.186,5.207-10.23,5.061c-1.83-0.09-4-0.51-5.25,0.819c-0.93,1-1,2.56-2,3.49c-1.35,1.31-3.54,0.67-5.42,0.601
	c-3.56-0.15-6.87,2.129-8.91,5c-2.04,2.869-3,6.42-4,9.859c10.93,24.34,20.93,48.711,31.86,73.051c0.512,0.916,0.783,1.949,0.79,3
	c-0.22,1.09-0.685,2.115-1.36,3c-5.36,8.609-5.189,19.439-4.6,29.559c0.59,10.121,1.31,20.811-3.21,29.881
	c-1.23,2.49-2.83,4.77-4,7.26c-2.74,5.641-3.73,23.68-2.13,29.74h226c-4.311-11.85-2.671-35.631-1.771-48.211
	c0.63-8.799-1-17.59-1.7-26.389C805.09,469.44,806.19,452.389,803.22,434.45z"/>
<path fill="#464353" d="M814.79,555.01c3.33-1.27,7-0.811,10.57-0.33c11.489,1.57,23.149,3.18,33.8,7.77c5,2.141,9.76,5,13.14,9.211
	c3,3.789,4.75,8.43,6.41,13l3.84,10.49c1.46,4,2.94,8.08,3.351,12.33c1.199,12.59-7.41,24.459-18.24,31
	c-10.83,6.539-23.58,8.869-36,11.309c-12.42,2.441-24.891,5.141-37.26,8c-5.77,1.498-11.624,2.65-17.53,3.451
	c-13.24,1.5-27.08-0.711-39.66,3.67c-5,1.75-9.91,4.35-15.1,5.559c-3.442,0.756-6.925,1.316-10.431,1.682l-23.81,2.719
	c-4.842,0.648-9.716,1.021-14.601,1.121c-10.399,0-20.63-2.461-30.729-4.92c-1.074-0.189-2.096-0.602-3-1.211
	c-1.6-1.26-1.95-3.49-2.18-5.51c-1.021-8.939-1.914-17.891-2.681-26.85c-0.239-2.91-0.42-6.061,1.17-8.51c2-3,5.9-3.941,9.461-4.521
	c15.095-2.469,30.388-3.529,45.68-3.17c5.81-5.809,15.39-5.84,23-9c2.8-1.285,5.509-2.758,8.109-4.41
	c13.607-7.938,28.813-12.744,44.511-14.068c3.075-0.094,6.131-0.531,9.109-1.301c5.891-1.83,11.261-6.811,17.311-5.59
	c0.75-2.07,1.27-4.84,3-6.26c0.859-0.73,1.92-1.221,2.71-2c1.67-1.689,1.819-4.35,1.569-6.711c-0.25-2.359-0.81-4.779-0.199-7.08
	c0.253-0.871,0.627-1.701,1.109-2.469C804.23,557.151,808.76,554.51,814.79,555.01z"/>
<path opacity="0.05" enable-background="new    " d="M814.79,555.01c3.33-1.27,7-0.811,10.57-0.33
	c11.489,1.57,23.149,3.18,33.8,7.77c5,2.141,9.76,5,13.14,9.211c3,3.789,4.75,8.43,6.41,13l3.84,10.49c1.46,4,2.94,8.08,3.351,12.33
	c1.199,12.59-7.41,24.459-18.24,31c-10.83,6.539-23.58,8.869-36,11.309c-12.42,2.441-24.891,5.141-37.26,8
	c-5.77,1.498-11.624,2.65-17.53,3.451c-13.24,1.5-27.08-0.711-39.66,3.67c-5,1.75-9.91,4.35-15.1,5.559
	c-3.442,0.756-6.925,1.316-10.431,1.682l-23.81,2.719c-4.842,0.648-9.716,1.021-14.601,1.121c-10.399,0-20.63-2.461-30.729-4.92
	c-1.074-0.189-2.096-0.602-3-1.211c-1.6-1.26-1.95-3.49-2.18-5.51c-1.021-8.939-1.914-17.891-2.681-26.85
	c-0.239-2.91-0.42-6.061,1.17-8.51c2-3,5.9-3.941,9.461-4.521c15.095-2.469,30.388-3.529,45.68-3.17c5.81-5.809,15.39-5.84,23-9
	c2.8-1.285,5.509-2.758,8.109-4.41c13.607-7.938,28.813-12.744,44.511-14.068c3.075-0.094,6.131-0.531,9.109-1.301
	c5.891-1.83,11.261-6.811,17.311-5.59c0.75-2.07,1.27-4.84,3-6.26c0.859-0.73,1.92-1.221,2.71-2c1.67-1.689,1.819-4.35,1.569-6.711
	c-0.25-2.359-0.81-4.779-0.199-7.08c0.253-0.871,0.627-1.701,1.109-2.469C804.23,557.151,808.76,554.51,814.79,555.01z"/>
<path fill="#3F3D56" d="M618.22,670.719c-6.189,7.17-11.64,9.73-21.33,9.5c-5.96-0.139-11.913-0.449-17.859-0.93
	c-4.064-0.439-8.152-0.629-12.24-0.57c-12.34,0.48-24.25,6.131-36.56,5.141c-1.82-0.143-3.621-0.479-5.37-1
	c-2.777-0.773-5.286-2.299-7.25-4.41c-2.36-2.67-3.49-6.209-4.141-9.709c-3.29-17.941,5.73-37.48,21.521-46.611
	c2.06-1.33,4.402-2.162,6.84-2.43c2.391-0.01,4.754,0.51,6.92,1.52l0.15,0.061c6.415,2.641,12.241,6.529,17.14,11.439
	c0.743,0.852,1.63,1.566,2.62,2.111c0.988,0.373,2.034,0.568,3.09,0.58l13.14,0.83c2.227,0.066,4.439,0.371,6.601,0.91
	c2.383,0.83,4.701,1.834,6.939,3c7.07,3.158,14.91,4,22.551,5.219c0.735,0.041,1.438,0.322,2,0.801
	c0.305,0.379,0.517,0.824,0.619,1.299C625.766,655.633,623.751,664.338,618.22,670.719z"/>
<path opacity="0.1" enable-background="new    " d="M548.86,621.28c-5.099,4.869-9.521,10.398-13.15,16.439
	c-5.824,9.973-9.483,21.061-10.74,32.541c-0.477,4.188-0.513,8.414-0.109,12.609c-2.778-0.775-5.288-2.305-7.25-4.42
	c-2.36-2.67-3.49-6.209-4.141-9.709c-3.29-17.941,5.73-37.48,21.521-46.611c2.06-1.33,4.402-2.162,6.84-2.43
	c2.391-0.01,4.754,0.51,6.92,1.52L548.86,621.28z"/>
<path fill="#FBBEBE" d="M803.35,646.151c7.351-0.201,15.601-0.57,21,4.379c5.15,4.68,5.83,12.4,6.17,19.35l0.391,8.07
	c0.12,2.461,0.22,5-0.771,7.281c-1.76,4-6.59,5.93-11,5.699c-4.409-0.23-8.46-2.16-12.489-3.9c-10.941-4.713-22.333-8.301-34-10.709
	c0.38-5.58,1.013-11.135,1.899-16.66c0.61-3.83,0.71-10.24,3.271-13.42c2.71-3.361,6.239-1.541,9.92-0.92
	C792.903,646.108,798.132,646.385,803.35,646.151z"/>
<path fill="#464353" d="M609.13,565.071c0,1-1.57,0-1.71-1.07c-1.1-8.09-7.52-14.76-15-18c-7.479-3.24-16-3.41-24.1-2.641
	c-12.25,1.16-25.95,5.85-30.48,17.301c-1.06,2.68-1.54,5.58-2.84,8.148c-1.44,2.82-3.79,5.07-5.35,7.811
	c-2.69,4.74-2.801,10.551-1.83,15.91c2.609,14.301,12.39,26.529,24.239,35c11.851,8.471,25.7,13.529,39.511,18.09
	c36.517,12.043,73.982,20.992,112,26.75c6.16,0.93,12.38,1.791,18.279,3.77c5.28,1.771,10.221,4.42,15.381,6.5
	c12,4.82,24.909,6.541,37.699,8.23c2.181,0.281,4.681,0.48,6.29-1c2.08-1.93,1.391-5.289,0.8-8.061
	c-2.171-10.521-0.357-21.477,5.091-30.738c2.14-3.602,4.92-7.291,4.52-11.461c-0.479-4.859-5.319-8.301-10.14-9.08
	s-9.72,0.371-14.561,1c-1.67,0.221-3.489,0.359-5-0.49c-0.719-0.484-1.371-1.064-1.939-1.719c-6.841-6.6-17.152-8.041-25.54-3.57
	c-1.79,1-4.5-1.23-6.36-2.07l-21.01-9.529c-24.16-10.932-48.44-21.91-74-28.83c-2.039-0.402-3.978-1.207-5.7-2.371
	c-1.27-1-2.18-2.359-3.35-3.469c-2.55-2.41-6.101-3.371-9.16-5.08C611.81,572.69,608.41,568.5,609.13,565.071z"/>
<path fill="#3F3D56" d="M933.32,695.76c-3.36,6.23-9.881,10.109-16.881,11.709c-1.756,0.396-3.542,0.652-5.34,0.762
	c-8.85,0.549-17.59-1.9-26.12-4.32l-11.579-3.281c-1.991-0.627-4.032-1.08-6.101-1.359c-2.815-0.188-5.644-0.092-8.439,0.289
	c-13.687,1.273-27.483,0.654-41-1.84c-1.131-0.121-2.218-0.508-3.171-1.129c-0.834-0.818-1.576-1.729-2.21-2.711
	c-3.149-3.789-6.54-6-2.81-11c2.15-2.9,6.14-4.35,7.81-7.68c1.671-3.33,0.601-8.061-0.39-11.5c-1.35-4.75-5.79-6.799-7.38-11.16
	c-1.19-3.289,0.81-7.109,3.82-8.9c3.01-1.789,6.729-1.93,10.199-1.469c3.471,0.459,6.87,1.439,10.36,1.709
	c10.26,0.82,20.75-4.469,30.6-1.49c2.17,0.66,4.221,1.711,6.42,2.291c4.289,0.959,8.77,0.572,12.83-1.109
	c1.44-0.541,2.851-1.191,4.25-1.83c2.7-1.406,5.576-2.445,8.551-3.09c9.609-1.65,18.52,5,25.77,11.488
	c2.489,2.066,4.691,4.453,6.55,7.102c2,3.119,3.061,6.75,4,10.33C935.71,676.84,937.9,687.26,933.32,695.76z"/>
<path opacity="0.1" enable-background="new    " d="M933.32,695.76c-3.36,6.23-9.881,10.109-16.881,11.709
	c2.724-5.289,3.951-11.223,3.551-17.158c-0.601-9.512-4.78-18.471-10.11-26.371c-3.279-4.863-7.009-9.406-11.14-13.57
	c-3.181-3.199-7.09-5.74-10.511-8.67c2.7-1.404,5.575-2.445,8.551-3.09c9.609-1.65,18.52,5,25.77,11.49
	c2.489,2.066,4.691,4.453,6.55,7.1c2,3.121,3.061,6.75,4,10.33C935.71,676.84,937.9,687.26,933.32,695.76z"/>
<path fill="#3F3D56" d="M631.29,210.5c-3.36,2.43-5.66,5.92-8,9.27c-4.31,6.19-9.19,12.37-16.08,15.82
	c-2.61,1.31-5.59,2.3-7.32,4.58c-1.026,1.542-1.693,3.295-1.95,5.13c-1.319,6.451-2.01,13.016-2.06,19.6c0,3.28,0.14,6.66,1.59,9.64
	c1.37,2.8,3.84,5.17,4.351,8.22c0.39,2.38-0.49,4.75-0.801,7.14c-0.31,2.39,0.23,5.22,2.44,6.36c1.19,0.448,2.435,0.74,3.7,0.87
	c6.649,1.48,8.88,9.28,9.89,15.73c2.26-0.13,3.28-2.72,3.75-4.83l6.931-30.81c0.75-3.34,2-7.21,5.329-8.38
	c2.23-0.77,4.671-0.05,7,0.15c9.15,0.75,16.891-6.32,25.841-8.27c2.865-0.575,5.794-0.767,8.71-0.57
	c7.06,0.35,15.27,3.25,16.77,9.84c0.25,1.07,0.4,2.35,1.4,2.88c1,0.53,2,0.08,3.1,0c4.48-0.45,7.12,4.59,8.41,8.71l4.7,15
	c0.7,2.27,1.88,4.94,4.34,5.23c2.27,0.28,4.2-1.87,4.54-4s-0.4-4.34-0.89-6.48c-2.211-9.85,1.17-19.93,3.229-29.8
	c2.06-9.87,2.43-21.21-4.479-28.81c-2.511-2.75-5.811-4.8-8.15-7.7c-2.18-2.72-3.41-6.06-5.67-8.73c-6.25-7.37-22.28-13.06-32.11-14
	C658.61,201.06,640.37,203.91,631.29,210.5z"/>
<g opacity="0.1">
	<path d="M713.37,294.8c-2.46-0.3-3.64-3-4.34-5.23c-1.567-5.006-3.134-10.006-4.7-15c-1.29-4.13-3.93-9.17-8.41-8.71
		c-1,0.11-2.18,0.52-3.1,0s-1.15-1.81-1.4-2.88c-1.5-6.6-9.71-9.49-16.77-9.84c-2.916-0.191-5.845,0-8.711,0.57
		c-9,2-16.689,9-25.84,8.27c-2.359-0.19-4.8-0.91-7-0.14c-3.37,1.16-4.58,5-5.33,8.38l-6.93,30.8c-0.47,2.12-1.49,4.71-3.75,4.83
		c-1-6.44-3.24-14.24-9.89-15.72c-1.265-0.139-2.507-0.431-3.7-0.87c-0.87-0.475-1.551-1.234-1.93-2.15
		c-0.181,0.93-0.391,1.86-0.511,2.79c-0.3,2.38,0.23,5.22,2.44,6.36c1.19,0.448,2.435,0.741,3.7,0.87
		c6.649,1.48,8.88,9.28,9.89,15.73c2.26-0.13,3.28-2.72,3.75-4.83l6.93-30.81c0.75-3.34,2-7.21,5.33-8.38
		c2.23-0.77,4.67-0.05,7,0.15c9.15,0.75,16.891-6.32,25.84-8.271c2.853-0.571,5.768-0.763,8.671-0.57
		c7.06,0.35,15.27,3.25,16.77,9.84c0.25,1.07,0.4,2.35,1.4,2.88c1,0.53,2,0.08,3.1,0c4.48-0.45,7.12,4.59,8.41,8.71
		c1.56,5.007,3.127,10.007,4.7,15c0.7,2.27,1.88,4.94,4.34,5.23c2.27,0.28,4.2-1.87,4.54-4c0.153-1.792-0.051-3.597-0.601-5.31
		C716.544,293.975,715.012,294.878,713.37,294.8z"/>
	<path d="M601.83,275.76c-0.51-3.05-3-5.42-4.35-8.22c-0.868-1.889-1.371-3.924-1.48-6c0,1.12-0.1,2.24-0.11,3.37
		c0,3.28,0.141,6.66,1.591,9.64c1.109,2.27,2.939,4.27,3.859,6.58C601.825,279.384,601.991,277.565,601.83,275.76z"/>
	<path d="M720.25,254.48c-1.82,8.72-4.66,17.6-3.78,26.34c0.57-6.45,2.45-12.94,3.78-19.34c1.108-4.857,1.499-9.85,1.16-14.82
		C721.192,249.289,720.805,251.901,720.25,254.48z"/>
</g>
<path fill="#FBBEBE" d="M605.77,478.651c-1.21,19.859-15.779,36.27-21.33,55.369c-1.38,4.779-2.21,9.74-4.189,14.289
	c-4,9.15-12.23,15.791-21,20.471c-3.2,1.85-6.699,3.123-10.34,3.76c-8.194,0.957-16.124-3.26-19.91-10.59c-2.29-4.65-2.61-10-4-15
	c-1.55-5.77-4.45-11.09-6.34-16.76c-3.48-10.43-3.41-21.85-1-32.57c2.283-9.322,5.896-18.268,10.729-26.561
	c0.7-1.229,1.41-2.449,2.141-3.658c2.063-3.498,4.379-6.842,6.93-10c6-7.23,13.71-12.791,21.34-18.271c0.583-0.479,1.267-0.822,2-1
	h0.12c0.86-0.029,1.713,0.17,2.47,0.58c10.582,4.576,20.738,10.076,30.351,16.441c3.439,2.289,8.87,4.85,10.67,8.75
	C606.21,467.799,606.03,474.411,605.77,478.651z"/>
<path fill="#F86D70" d="M566.07,387.26c-0.975,1.02-1.729,2.228-2.221,3.55c-8.083,18.218-12.857,37.729-14.1,57.62
	c0.021,0.971-0.202,1.93-0.65,2.789c-0.441,0.574-0.934,1.105-1.47,1.59c-1.966,2.332-1.67,5.814,0.66,7.779
	c0.091,0.076,0.185,0.15,0.28,0.221c1.649-3.109,5.6-4.119,9.109-4.389c16.811-1.33,33.23,6.49,50.091,5.9
	c-1.19-4.111-2.9-8.061-3.87-12.221c-4.29-18.471,6.41-38.58-0.15-56.37c-1.31-3.56-3.5-7.06-6.95-8.62
	c-1.429-0.576-2.923-0.973-4.45-1.18c-4.26-0.77-12.739-4.061-16.859-2.74c-1.521,0.49-2.12,1.92-3.38,2.78
	C570.24,385.2,567.7,385.629,566.07,387.26z"/>
<path opacity="0.1" enable-background="new    " d="M572.96,552.61c-5.229,8.869-14.705,14.369-25,14.51
	c-2.74,0.072-5.465-0.428-8-1.469c-6.39-2.82-10-9.801-11.34-16.66c-1.34-6.861-0.92-13.941-1.87-20.871
	c-0.76-5.52-2.38-10.879-3.22-16.389c-2.061-13.631,2-27.092,4.89-40.66c0.7-1.23,1.41-2.451,2.14-3.66
	c2.063-3.498,4.38-6.84,6.931-10c6-7.23,13.71-12.791,21.34-18.27h-8c0.61-0.447,1.468-0.314,1.914,0.297
	c0.141,0.191,0.229,0.416,0.256,0.652c0.79,7,10.66,14,12.81,20.801c1.33,4.18,2.931,8.279,4,12.539
	c0.844,3.629,1.484,7.301,1.921,11c1.42,10.354,2.833,20.688,4.239,31C577.74,528.02,579.26,541.629,572.96,552.61z"/>
<path fill="#FBBEBE" d="M559.72,421.309l9.65-30.27c1.439-4.529,2.899-9.129,3.07-13.89c0.17-4.76-1.08-9.75-4.41-13.149
	c-2.7-2.75-6.44-4.17-9.641-6.32c-8-5.39-12-14.83-16.17-23.52s-9.659-17.78-18.76-21c-2.1-0.74-5-0.8-5.94,1.21
	c-0.324,0.835-0.377,1.752-0.149,2.62c0.88,4.62,4.189,8.31,7.07,12c4.829,6.25,8.869,13.9,7.71,21.72
	c-1.381,9.26-9.7,16.44-10.7,25.75c-0.44,4.101,0.609,8.211,0.6,12.34c0,2.561-0.42,5.171,0.15,7.67
	c0.592,1.934,1.296,3.83,2.109,5.682c0.892,2.988,1.355,6.09,1.381,9.209l2.109,39.359c1.141,21.291-10.41,42-7.229,63
	c0.84,5.512,2.46,10.871,3.22,16.391c1,6.93,0.53,14,1.87,20.871c1.34,6.869,5,13.84,11.34,16.658c2.535,1.043,5.26,1.543,8,1.471
	c10.295-0.141,19.771-5.641,25-14.51c6.3-11,4.78-24.59,3.06-37.131l-4.239-31c-0.436-3.699-1.077-7.371-1.92-11
	c-1.061-4.26-2.66-8.359-4-12.539C558.61,449.26,555.4,434.889,559.72,421.309z"/>
<path fill="#3F3D56" d="M609.54,423.661H816.6c4.402,0,7.971,3.568,7.971,7.969V557.69c0,4.402-3.568,7.971-7.971,7.971H609.54
	c-4.401,0-7.97-3.568-7.97-7.971V431.629C601.57,427.229,605.139,423.661,609.54,423.661z"/>
<path opacity="0.2" enable-background="new    " d="M609.54,423.661H816.6c4.402,0,7.971,3.568,7.971,7.969V557.69
	c0,4.402-3.568,7.971-7.971,7.971H609.54c-4.401,0-7.97-3.568-7.97-7.971V431.629C601.57,427.229,605.139,423.661,609.54,423.661z"
	/>
<circle fill="#FFFFFF" cx="712.57" cy="494.661" r="6"/>
<rect x="158.11" y="179.65" fill="#FFB800" width="226" height="88"/>
<path fill="none" stroke="#3F3D56" stroke-width="9" stroke-miterlimit="10" d="M170.11,179.65h347c6.627,0,12,5.373,12,12v64
	c0,6.627-5.373,12-12,12h-347c-6.627,0-12-5.373-12-12v-64C158.11,185.022,163.482,179.65,170.11,179.65z"/>
</svg>
