<?xml version="1.0" encoding="utf-8"?>
<!-- Generator: Adobe Illustrator 16.0.0, SVG Export Plug-In . SVG Version: 6.00 Build 0)  -->
<!DOCTYPE svg PUBLIC "-//W3C//DTD SVG 1.1//EN" "http://www.w3.org/Graphics/SVG/1.1/DTD/svg11.dtd">
<svg version="1.1" id="b847c0d8-de26-4ae3-b269-ef35a8ef771f"
	 xmlns="http://www.w3.org/2000/svg" xmlns:xlink="http://www.w3.org/1999/xlink" x="0px" y="0px" width="1130px"
	 height="831.559px" viewBox="0 0 1130 831.559" enable-background="new 0 0 1130 831.559" xml:space="preserve">
<title>youtube tutorial</title>
<path opacity="0.1" fill="#FBB03B" enable-background="new    " d="M656.54,124.69C584.1,122.18,515.1,98.78,449.22,73.2
	S318.07,19.27,247.37,5.71c-45.48-8.72-97.49-9.93-134.13,14.43c-35.27,23.46-46.66,64-52.78,101.55c-4.61,28.28-7.32,58,5.3,84.51
	c8.77,18.37,24.34,33.82,35.11,51.42c37.45,61.26,11,136.79-29.62,196.589c-19,28.061-41.13,54.82-55.82,84.691
	C0.74,568.77-6.06,602.981,6.79,633.44c12.75,30.199,43.11,52.881,76,68.83c66.81,32.4,145.54,41.68,222.31,46.93
	c169.95,11.58,340.8,6.58,511.19,1.58c63.06-1.869,126.39-3.76,188.43-13.51c34.44-5.41,70-14,95-34.75
	c31.75-26.34,39.62-70.939,18.34-104c-35.68-55.391-134.35-69.15-159.29-128.6c-13.729-32.721,0.37-69.17,20.32-99.521
	c42.8-65.11,114.54-122.22,118.32-196.64c2.6-51.11-31.891-102.3-85.21-126.479c-55.9-25.35-133.4-22.16-174.641,19.8
	C795.12,110.29,720.5,126.91,656.54,124.69z"/>
<polygon fill="#D0D2D5" points="664.18,755.889 469.18,753.389 469.75,748.389 479.18,665.889 650.43,665.889 663.03,748.389 
	663.99,754.639 "/>
<polygon opacity="0.1" enable-background="new    " points="663.99,754.639 566.68,754.639 469.18,753.389 469.75,748.389 
	663.03,748.389 "/>
<rect x="436.68" y="749.639" fill="#D0D2D5" width="258.75" height="6.25"/>
<path fill="#444053" d="M942.3,170.37c0.045-8.986-7.204-16.306-16.189-16.35l0,0H203.5c-8.985,0.039-16.239,7.354-16.2,16.34
	c0,0.003,0,0.007,0,0.01v438h755V170.37z"/>
<path fill="#D0D2D5" d="M187.3,604.02v51.301c0,8.945,7.253,16.199,16.2,16.199l0,0h722.61c8.942-0.006,16.189-7.258,16.189-16.199
	V604.02H187.3z"/>
<rect x="218.55" y="181.52" opacity="0.1" fill="#22B573" enable-background="new    " width="696.25" height="393.75"/>
<path fill="#FBB03B" d="M568.55,652.049c5.181,0.004,10.075-2.369,13.28-6.439l0,0c0.479-0.613,0.917-1.258,1.31-1.93l-9.26-1.52
	l10,0.08c1.949-4.225,2.065-9.068,0.32-13.381l-13.431,7l12.391-9.1c-4.692-8.049-15.021-10.77-23.07-6.078
	c-8.05,4.693-10.771,15.021-6.078,23.07c0.383,0.658,0.811,1.289,1.278,1.887l0,0C558.495,649.696,563.382,652.057,568.55,652.049z"
	/>
<polygon opacity="0.1" enable-background="new    " points="585.43,671.52 663.22,749.639 651.29,671.52 "/>
<path fill="#FFFFFF" d="M241.6,252.56h451.8c1.436,0,2.6,1.164,2.6,2.6v268.799c0,1.436-1.164,2.6-2.6,2.6H241.6
	c-1.436,0-2.6-1.164-2.6-2.6V255.16C239,253.724,240.164,252.56,241.6,252.56z"/>
<rect x="219" y="181.56" fill="#FFFFFF" width="696" height="23"/>
<path fill="#FBB03B" d="M222.78,185.56h18.44c0.431,0,0.78,0.349,0.78,0.78v12.44c0,0.431-0.349,0.78-0.78,0.78h-18.44
	c-0.431,0-0.78-0.349-0.78-0.78v-12.44C222,185.909,222.349,185.56,222.78,185.56z"/>
<path opacity="0.3" fill="#FBB03B" enable-background="new    " d="M460.58,185.56h208.84c0.32,0,0.58,0.26,0.58,0.58v12.84
	c0,0.32-0.26,0.58-0.58,0.58H460.58c-0.32,0-0.58-0.26-0.58-0.58v-12.84C460,185.82,460.26,185.56,460.58,185.56z"/>
<path fill="#444053" d="M663.77,194h-0.51l-0.189-0.16c0.642-0.761,0.995-1.724,1-2.72c-0.017-2.287-1.884-4.126-4.17-4.11
	c-2.287,0.017-4.127,1.883-4.11,4.17c0.017,2.278,1.871,4.115,4.15,4.11c0.995-0.006,1.957-0.36,2.72-1l0.189,0.16v0.52l3.2,3.2l1-1
	L663.77,194z M659.93,194c-1.596,0.005-2.895-1.284-2.899-2.88c-0.006-1.596,1.284-2.895,2.88-2.9
	c1.596-0.006,2.895,1.284,2.899,2.88c0,0.006,0,0.013,0,0.02c0.012,1.58-1.26,2.869-2.84,2.88C659.957,194,659.943,194,659.93,194z"
	/>
<circle fill="#FBB03B" cx="905" cy="192.56" r="7"/>
<path fill="#FFFFFF" d="M731.43,229.56h60.141c1.342,0,2.43,1.088,2.43,2.43v39.14c0,1.342-1.088,2.43-2.43,2.43H731.43
	c-1.342,0-2.43-1.088-2.43-2.43v-39.14C729,230.648,730.088,229.56,731.43,229.56z"/>
<path fill="#FFFFFF" d="M811.61,229.56h82.779c0.337,0,0.61,0.273,0.61,0.61v5.78c0,0.337-0.273,0.61-0.61,0.61H811.61
	c-0.337,0-0.61-0.273-0.61-0.61v-5.78C811,229.833,811.273,229.56,811.61,229.56z"/>
<path fill="#FFFFFF" d="M811.61,244.56h82.779c0.337,0,0.61,0.273,0.61,0.61v5.78c0,0.337-0.273,0.61-0.61,0.61H811.61
	c-0.337,0-0.61-0.273-0.61-0.61v-5.78C811,244.833,811.273,244.56,811.61,244.56z"/>
<path fill="#FFFFFF" d="M811.61,259.56h82.779c0.337,0,0.61,0.273,0.61,0.61v5.78c0,0.337-0.273,0.61-0.61,0.61H811.61
	c-0.337,0-0.61-0.273-0.61-0.61v-5.78C811,259.833,811.273,259.56,811.61,259.56z"/>
<path fill="#FFFFFF" d="M731.43,298.56h60.141c1.342,0,2.43,1.088,2.43,2.43v39.14c0,1.342-1.088,2.43-2.43,2.43H731.43
	c-1.342,0-2.43-1.088-2.43-2.43v-39.14C729,299.648,730.088,298.56,731.43,298.56z"/>
<path fill="#FFFFFF" d="M811.61,298.56h82.779c0.337,0,0.61,0.273,0.61,0.61v5.78c0,0.337-0.273,0.61-0.61,0.61H811.61
	c-0.337,0-0.61-0.273-0.61-0.61v-5.78C811,298.833,811.273,298.56,811.61,298.56z"/>
<path fill="#FFFFFF" d="M811.61,313.56h82.779c0.337,0,0.61,0.273,0.61,0.61v5.78c0,0.337-0.273,0.61-0.61,0.61H811.61
	c-0.337,0-0.61-0.273-0.61-0.61v-5.78C811,313.833,811.273,313.56,811.61,313.56z"/>
<path fill="#FFFFFF" d="M811.66,328.56h82.68c0.364,0,0.66,0.295,0.66,0.66v5.68c0,0.365-0.296,0.66-0.66,0.66h-82.68
	c-0.364,0-0.66-0.295-0.66-0.66v-5.68C811,328.855,811.296,328.56,811.66,328.56z"/>
<path fill="#FFFFFF" d="M731.43,367.56h60.141c1.342,0,2.43,1.088,2.43,2.43v39.14c0,1.342-1.088,2.43-2.43,2.43H731.43
	c-1.342,0-2.43-1.088-2.43-2.43v-39.14C729,368.648,730.088,367.56,731.43,367.56z"/>
<path fill="#FFFFFF" d="M811.66,367.56h82.68c0.364,0,0.66,0.295,0.66,0.66v5.68c0,0.365-0.296,0.66-0.66,0.66h-82.68
	c-0.364,0-0.66-0.295-0.66-0.66v-5.68C811,367.855,811.296,367.56,811.66,367.56z"/>
<path fill="#FFFFFF" d="M811.66,382.56h82.68c0.364,0,0.66,0.295,0.66,0.66v5.68c0,0.365-0.296,0.66-0.66,0.66h-82.68
	c-0.364,0-0.66-0.295-0.66-0.66v-5.68C811,382.855,811.296,382.56,811.66,382.56z"/>
<path fill="#FFFFFF" d="M811.66,397.56h82.68c0.364,0,0.66,0.296,0.66,0.66v5.681c0,0.364-0.296,0.659-0.66,0.659h-82.68
	c-0.364,0-0.66-0.295-0.66-0.659v-5.681C811,397.855,811.296,397.56,811.66,397.56z"/>
<path fill="#FFFFFF" d="M731.43,436.559h60.141c1.342,0,2.43,1.09,2.43,2.432v39.139c0,1.342-1.088,2.43-2.43,2.43H731.43
	c-1.342,0-2.43-1.088-2.43-2.43v-39.139C729,437.649,730.088,436.559,731.43,436.559z"/>
<path fill="#FFFFFF" d="M811.66,436.559h82.68c0.364,0,0.66,0.297,0.66,0.66v5.682c0,0.363-0.296,0.658-0.66,0.658h-82.68
	c-0.364,0-0.66-0.295-0.66-0.658v-5.682C811,436.856,811.296,436.559,811.66,436.559z"/>
<path fill="#FFFFFF" d="M811.66,451.559h82.68c0.364,0,0.66,0.297,0.66,0.66v5.682c0,0.363-0.296,0.658-0.66,0.658h-82.68
	c-0.364,0-0.66-0.295-0.66-0.658v-5.682C811,451.856,811.296,451.559,811.66,451.559z"/>
<path fill="#FFFFFF" d="M811.66,466.559h82.68c0.364,0,0.66,0.297,0.66,0.66v5.682c0,0.363-0.296,0.658-0.66,0.658h-82.68
	c-0.364,0-0.66-0.295-0.66-0.658v-5.682C811,466.856,811.296,466.559,811.66,466.559z"/>
<path fill="#FFFFFF" d="M731.43,505.559h60.141c1.342,0,2.43,1.09,2.43,2.432v39.139c0,1.342-1.088,2.43-2.43,2.43H731.43
	c-1.342,0-2.43-1.088-2.43-2.43v-39.139C729,506.649,730.088,505.559,731.43,505.559z"/>
<path fill="#FFFFFF" d="M811.66,505.559h82.68c0.364,0,0.66,0.297,0.66,0.66v5.682c0,0.363-0.296,0.658-0.66,0.658h-82.68
	c-0.364,0-0.66-0.295-0.66-0.658v-5.682C811,505.856,811.296,505.559,811.66,505.559z"/>
<path fill="#FFFFFF" d="M811.66,520.559h82.68c0.364,0,0.66,0.297,0.66,0.66v5.682c0,0.363-0.296,0.658-0.66,0.658h-82.68
	c-0.364,0-0.66-0.295-0.66-0.658v-5.682C811,520.856,811.296,520.559,811.66,520.559z"/>
<path fill="#FFFFFF" d="M811.66,535.559h82.68c0.364,0,0.66,0.297,0.66,0.66v5.682c0,0.363-0.296,0.658-0.66,0.658h-82.68
	c-0.364,0-0.66-0.295-0.66-0.658v-5.682C811,535.856,811.296,535.559,811.66,535.559z"/>
<rect x="304.92" y="325.17" opacity="0.1" fill="#6C63FF" enable-background="new    " width="102.83" height="5.33"/>
<rect x="314.06" y="296.99" opacity="0.1" fill="#6C63FF" enable-background="new    " width="9.9" height="28.18"/>
<rect x="328.53" y="296.99" opacity="0.1" fill="#6C63FF" enable-background="new    " width="9.899" height="28.18"/>
<rect x="343" y="296.99" opacity="0.1" fill="#6C63FF" enable-background="new    " width="9.9" height="28.18"/>
<rect x="357.47" y="296.99" opacity="0.1" fill="#6C63FF" enable-background="new    " width="9.9" height="28.18"/>
<rect x="371.94" y="296.99" opacity="0.1" fill="#6C63FF" enable-background="new    " width="9.899" height="28.18"/>
<rect x="386.42" y="296.99" opacity="0.1" fill="#6C63FF" enable-background="new    " width="9.9" height="28.18"/>
<rect x="314.06" y="302.32" opacity="0.1" fill="#6C63FF" enable-background="new    " width="9.9" height="3.05"/>
<rect x="328.53" y="302.32" opacity="0.1" fill="#6C63FF" enable-background="new    " width="9.899" height="3.05"/>
<rect x="343" y="302.32" opacity="0.1" fill="#6C63FF" enable-background="new    " width="9.9" height="3.05"/>
<rect x="357.47" y="302.32" opacity="0.1" fill="#6C63FF" enable-background="new    " width="9.9" height="3.05"/>
<rect x="371.94" y="302.32" opacity="0.1" fill="#6C63FF" enable-background="new    " width="9.899" height="3.05"/>
<rect x="386.42" y="302.32" opacity="0.1" fill="#6C63FF" enable-background="new    " width="9.9" height="3.05"/>
<rect x="314.06" y="316.03" opacity="0.1" fill="#6C63FF" enable-background="new    " width="9.9" height="3.05"/>
<rect x="328.53" y="316.03" opacity="0.1" fill="#6C63FF" enable-background="new    " width="9.899" height="3.05"/>
<rect x="343" y="316.03" opacity="0.1" fill="#6C63FF" enable-background="new    " width="9.9" height="3.05"/>
<rect x="357.47" y="316.03" opacity="0.1" fill="#6C63FF" enable-background="new    " width="9.9" height="3.05"/>
<rect x="371.94" y="316.03" opacity="0.1" fill="#6C63FF" enable-background="new    " width="9.899" height="3.05"/>
<rect x="386.42" y="316.03" opacity="0.1" fill="#6C63FF" enable-background="new    " width="9.9" height="3.05"/>
<rect x="530.37" y="338.88" opacity="0.1" fill="#6C63FF" enable-background="new    " width="102.83" height="5.33"/>
<rect x="539.51" y="310.7" opacity="0.1" fill="#6C63FF" enable-background="new    " width="9.9" height="28.18"/>
<rect x="553.98" y="310.7" opacity="0.1" fill="#6C63FF" enable-background="new    " width="9.899" height="28.18"/>
<rect x="568.45" y="310.7" opacity="0.1" fill="#6C63FF" enable-background="new    " width="9.899" height="28.18"/>
<rect x="582.93" y="310.7" opacity="0.1" fill="#6C63FF" enable-background="new    " width="9.9" height="28.18"/>
<rect x="597.4" y="310.7" opacity="0.1" fill="#6C63FF" enable-background="new    " width="9.899" height="28.18"/>
<rect x="611.87" y="310.7" opacity="0.1" fill="#6C63FF" enable-background="new    " width="9.899" height="28.18"/>
<rect x="539.51" y="316.03" opacity="0.1" fill="#6C63FF" enable-background="new    " width="9.9" height="3.05"/>
<rect x="553.98" y="316.03" opacity="0.1" fill="#6C63FF" enable-background="new    " width="9.899" height="3.05"/>
<rect x="568.45" y="316.03" opacity="0.1" fill="#6C63FF" enable-background="new    " width="9.899" height="3.05"/>
<rect x="582.93" y="316.03" opacity="0.1" fill="#6C63FF" enable-background="new    " width="9.9" height="3.05"/>
<rect x="597.4" y="316.03" opacity="0.1" fill="#6C63FF" enable-background="new    " width="9.899" height="3.05"/>
<rect x="611.87" y="316.03" opacity="0.1" fill="#6C63FF" enable-background="new    " width="9.899" height="3.05"/>
<rect x="539.51" y="329.74" opacity="0.1" fill="#6C63FF" enable-background="new    " width="9.9" height="3.05"/>
<rect x="553.98" y="329.74" opacity="0.1" fill="#6C63FF" enable-background="new    " width="9.899" height="3.05"/>
<rect x="568.45" y="329.74" opacity="0.1" fill="#6C63FF" enable-background="new    " width="9.899" height="3.05"/>
<rect x="582.93" y="329.74" opacity="0.1" fill="#6C63FF" enable-background="new    " width="9.9" height="3.05"/>
<rect x="597.4" y="329.74" opacity="0.1" fill="#6C63FF" enable-background="new    " width="9.899" height="3.05"/>
<rect x="611.87" y="329.74" opacity="0.1" fill="#6C63FF" enable-background="new    " width="9.899" height="3.05"/>
<rect x="530.37" y="377.72" opacity="0.1" fill="#6C63FF" enable-background="new    " width="102.83" height="5.33"/>
<rect x="539.51" y="349.54" opacity="0.1" fill="#6C63FF" enable-background="new    " width="9.9" height="28.18"/>
<rect x="553.98" y="349.54" opacity="0.1" fill="#6C63FF" enable-background="new    " width="9.899" height="28.18"/>
<rect x="568.45" y="349.54" opacity="0.1" fill="#6C63FF" enable-background="new    " width="9.899" height="28.18"/>
<rect x="582.93" y="349.54" opacity="0.1" fill="#6C63FF" enable-background="new    " width="9.9" height="28.18"/>
<rect x="597.4" y="349.54" opacity="0.1" fill="#6C63FF" enable-background="new    " width="9.899" height="28.18"/>
<rect x="611.87" y="349.54" opacity="0.1" fill="#6C63FF" enable-background="new    " width="9.899" height="28.18"/>
<rect x="539.51" y="354.87" opacity="0.1" fill="#6C63FF" enable-background="new    " width="9.9" height="3.05"/>
<rect x="553.98" y="354.87" opacity="0.1" fill="#6C63FF" enable-background="new    " width="9.899" height="3.05"/>
<rect x="568.45" y="354.87" opacity="0.1" fill="#6C63FF" enable-background="new    " width="9.899" height="3.05"/>
<rect x="582.93" y="354.87" opacity="0.1" fill="#6C63FF" enable-background="new    " width="9.9" height="3.05"/>
<rect x="597.4" y="354.87" opacity="0.1" fill="#6C63FF" enable-background="new    " width="9.899" height="3.05"/>
<rect x="611.87" y="354.87" opacity="0.1" fill="#6C63FF" enable-background="new    " width="9.899" height="3.05"/>
<rect x="539.51" y="368.58" opacity="0.1" fill="#6C63FF" enable-background="new    " width="9.9" height="3.05"/>
<rect x="553.98" y="368.58" opacity="0.1" fill="#6C63FF" enable-background="new    " width="9.899" height="3.05"/>
<rect x="568.45" y="368.58" opacity="0.1" fill="#6C63FF" enable-background="new    " width="9.899" height="3.05"/>
<rect x="582.93" y="368.58" opacity="0.1" fill="#6C63FF" enable-background="new    " width="9.9" height="3.05"/>
<rect x="597.4" y="368.58" opacity="0.1" fill="#6C63FF" enable-background="new    " width="9.899" height="3.05"/>
<rect x="611.87" y="368.58" opacity="0.1" fill="#6C63FF" enable-background="new    " width="9.899" height="3.05"/>
<path opacity="0.1" fill="#6C63FF" enable-background="new    " d="M368,385.44c-0.767-0.983-1.469-2.015-2.1-3.09l14.81-2.43
	l-16,0.12c-3.102-6.753-3.29-14.484-0.52-21.38l21.449,11.12l-19.81-14.56c7.384-12.956,23.872-17.472,36.827-10.088
	s17.472,23.872,10.088,36.827c-0.691,1.212-1.476,2.37-2.345,3.46c1.205,1.521,2.238,3.171,3.08,4.92l-19.221,10l20.49-6.87
	c2.912,8.63,1.276,18.147-4.35,25.31c9.233,11.709,7.229,28.686-4.48,37.92c-11.708,9.234-28.686,7.229-37.92-4.48
	c-7.733-9.805-7.733-23.635,0-33.439c-7.696-9.792-7.696-23.578,0-33.37V385.44z"/>
<path opacity="0.1" fill="#6C63FF" enable-background="new    " d="M416.18,402.12c0.001,6.045-2.035,11.914-5.779,16.66
	c9.233,11.709,7.229,28.686-4.48,37.92c-11.708,9.234-28.686,7.229-37.92-4.48c-7.733-9.805-7.733-23.635,0-33.439
	C364.37,414.21,416.18,399.09,416.18,402.12z"/>
<path opacity="0.2" fill="#3F3D56" enable-background="new    " d="M393.52,469.661c0.048,0.07,0.091,0.145,0.131,0.219h-9.16
	c0.05-0.07,0.08-0.148,0.13-0.219c-0.788-1.371-1.196-2.93-1.18-4.51c-0.005-1.084,0.182-2.162,0.55-3.182l0,0
	c0.51,0.08,1.14,0.17,1.87,0.25c2.124,0.213,4.265,0.213,6.39,0c0.613-0.059,1.243-0.139,1.89-0.238
	c-0.004,0.016-0.004,0.033,0,0.049c0.364,1.004,0.548,2.063,0.54,3.131C394.7,466.737,394.3,468.29,393.52,469.661z"/>
<path opacity="0.1" fill="#6C63FF" enable-background="new    " d="M360.6,469.879h-51c-0.109-0.289-0.21-0.6-0.3-0.898
	c-1.797-5.779-1.589-11.996,0.59-17.641c-10.247-7.084-14.316-20.262-9.85-31.891c-1.025-0.705-1.998-1.484-2.91-2.33l13.42-6.69
	l-15.26,4.84c-4.959-5.532-7.419-12.865-6.8-20.27l23.81,4.3l-23.22-8.07c3.206-14.563,17.61-23.77,32.173-20.564
	c14.563,3.206,23.771,17.61,20.564,32.173c-0.307,1.395-0.724,2.763-1.247,4.091c1.61,1.121,3.096,2.412,4.43,3.851l-15.42,15.21
	l17.55-12.621c5.344,7.394,6.592,16.984,3.32,25.5C360.403,445.762,364.552,458.436,360.6,469.879z"/>
<path opacity="0.1" fill="#6C63FF" enable-background="new    " d="M360.6,469.879h-51c-0.109-0.289-0.21-0.6-0.3-0.898
	c-1.797-5.779-1.589-11.996,0.59-17.641c-4.8-3.32,40.23-33.07,41.12-30.17c1.797,5.781,1.589,12-0.59,17.65
	C360.406,445.709,364.57,458.415,360.6,469.879z"/>
<path opacity="0.1" fill="#6C63FF" enable-background="new    " d="M591.35,433.34c-3.097,5.197-7.856,9.201-13.51,11.359
	c0.242,1.924,0.279,3.869,0.11,5.801l-21.61-1.301l21.11,4.58c-0.621,2.877-1.709,5.635-3.22,8.16c-1.841,3.094-4.29,5.781-7.2,7.9
	h-29.42v0.77h-30c0.06-0.26,0.12-0.51,0.189-0.77c2.221-8.393,8.342-15.207,16.45-18.311c-1.58-12.355,5.497-24.188,17.13-28.641
	c-0.158-1.236-0.231-2.482-0.22-3.729l13.95,5.51l-13.8-8.111c0.821-7.386,4.652-14.107,10.59-18.579l12.71,20.579l-9.53-22.659
	c13.047-7.22,29.477-2.495,36.696,10.552C596.426,414.854,596.263,425.09,591.35,433.34L591.35,433.34z"/>
<path opacity="0.1" fill="#6C63FF" enable-background="new    " d="M574.23,461.981c-1.841,3.094-4.29,5.781-7.2,7.898h-29.42v0.771
	h-30c0.06-0.262,0.12-0.512,0.189-0.771c2.221-8.393,8.342-15.205,16.45-18.309c-0.25-2,5.56-1.701,13.31-0.4
	C552.75,453.719,575.26,460.26,574.23,461.981z"/>
<path fill="#EE8E9E" d="M446.71,389.97c0,0,3.7,20-4.56,26.53c-8.261,6.529,7,45.67,32.18,41.1s35.439-37.4,35.439-37.4
	s-25.22-5.219-15.869-31.75L446.71,389.97z"/>
<path opacity="0.1" enable-background="new    " d="M446.71,389.97c0,0,3.7,20-4.56,26.53c-8.261,6.529,7,45.67,32.18,41.1
	s35.439-37.4,35.439-37.4s-25.22-5.219-15.869-31.75L446.71,389.97z"/>
<circle fill="#EE8E9E" cx="469" cy="362.9" r="41.75"/>
<path fill="#FBB03B" d="M537.61,442.27v28.381H399.75v-27.092c0-7.021,4.202-13.363,10.67-16.1l3.95-1.68
	c10-4.26,22.149-9.549,26.12-11.75c0.435-0.218,0.844-0.482,1.22-0.79c2.17-2.17,1.74,0.649,1.74,0.649s-0.061,0.54-0.101,1.471
	c-0.239,6.39,0.681,31.5,30.11,29.41c28.71-2,30-21.42,29.71-27.131c-0.017-0.527-0.06-1.055-0.13-1.58
	c1.985,0.472,3.929,1.109,5.81,1.9c6,2.221,14.86,5.781,17.23,7.461c0.74,0.52,1.64,1.061,2.62,1.609
	c1.111,0.621,2.151,1.361,3.1,2.211C535.498,432.561,537.61,437.299,537.61,442.27z"/>
<path opacity="0.1" enable-background="new    " d="M508.85,417.959c-2.43,11.26-10.06,32.35-37.56,32.9
	c-29.3,0.58-31-28.561-30.81-36.83c0.44-0.212,0.854-0.477,1.229-0.79c2.18-2.17,1.74,0.649,1.74,0.649s-3.69,33.271,30,30.88
	c33.689-2.391,29.55-28.7,29.55-28.7C503,415.91,505.51,416.78,508.85,417.959z"/>
<path fill="#454B69" d="M419.58,364.99c2.836-0.709,5.818,0.38,7.53,2.75c1.52,2.13,1.75,4.7,1.939,7.16
	c1.811,0.38,2.83-1.67,3-3.22c0.67-6.31,0.72-12.74,2.84-18.84c2.12-6.1,6.75-12,13.86-14.33c2.43-0.842,5.025-1.089,7.57-0.72
	c1.51,0.25,2.93,0.78,4.43,1c5.2,0.86,10.85-1.6,15.72,0.11c3.061,1.08,5,3.57,6.431,6.06c0.621,1.343,1.467,2.57,2.5,3.63
	c2.069,1.86,5.31,2.34,8.279,2.92c2.971,0.58,6.21,1.59,7.48,3.88c1.14,2.07,0.3,4.46-0.08,6.7
	c-0.588,3.549,0.006,7.192,1.689,10.37c0.551,1,1.67,2.21,3,1.88c0.596-0.201,1.1-0.609,1.42-1.15c3.41-4.78,3.32-11,7.601-15.31
	c1.43-1.44,3.28-2.56,4.67-4c2.137-2.167,3.045-5.261,2.42-8.24c-0.771-3.3-3.41-6-5.54-8.9c-2.767-3.674-4.781-7.857-5.93-12.31
	c-0.201-0.518-0.201-1.092,0-1.61c0.404-0.525,0.924-0.95,1.52-1.24c2.398-1.608,3.229-4.747,1.94-7.33
	c-1.21-2.47-3.87-4.35-6.87-5.47c-3.043-1-6.185-1.67-9.37-2c-2.1,0.3-4.56-0.89-5.21-2.57c-0.29-0.75-0.29-1.56-0.58-2.31
	c-0.798-1.528-2.29-2.573-4-2.8c-1.789-0.29-3.62-0.159-5.35,0.38c-2,0.56-4.271,1.4-6,0.42c-0.91-0.51-1.41-1.44-2.391-1.86
	c-2-0.84-4.06,0.86-5.489,2.26c-1.378,1.469-3.07,2.607-4.95,3.33c-2.009,0.766-4.251,0.616-6.141-0.41
	c-1.369-0.87-2.06-2.27-3.149-3.38c-2.059-1.836-4.693-2.896-7.45-3c-2.835-0.15-5.675,0.161-8.41,0.92
	c-5.22,1.272-10.205,3.365-14.77,6.2c-2.296,1.262-4.244,3.072-5.67,5.27c-0.844,1.685-1.279,3.545-1.271,5.43
	c-0.22,5.91,1.74,12.13,6.851,16.27c-3.12,1.3-4.171,4.49-4.9,7.32c-1.17,4.52-2.34,9.11-1.9,13.71c0.221,2.38,0.87,4.76,0.521,7.13
	c-0.28,1.116-0.435,2.26-0.46,3.41C417.211,363.796,418.267,364.78,419.58,364.99z"/>
<g opacity="0.1">
	<path d="M521.23,343.78c-0.449,0.979-1.058,1.878-1.801,2.66c-1.39,1.46-3.239,2.59-4.67,4c-4.279,4.28-4.189,10.54-7.6,15.32
		c-0.318,0.541-0.823,0.946-1.42,1.14c-1.3,0.34-2.42-0.84-3-1.88c-0.661-1.266-1.161-2.61-1.49-4c-0.07,0.35-0.14,0.7-0.2,1
		c-0.587,3.548,0.007,7.192,1.69,10.37c0.55,1,1.67,2.21,3,1.88c0.596-0.201,1.1-0.609,1.42-1.15c3.41-4.78,3.32-11,7.6-15.31
		c1.431-1.44,3.28-2.56,4.67-4c2.137-2.167,3.046-5.261,2.42-8.24C521.696,344.956,521.489,344.357,521.23,343.78z"/>
	<path d="M511.91,314.18c-0.598,0.287-1.119,0.712-1.521,1.24c-0.199,0.515-0.199,1.085,0,1.6c0.395,1.554,0.899,3.078,1.511,4.56
		l0,0c2.397-1.608,3.229-4.747,1.939-7.33c-0.194-0.412-0.429-0.804-0.7-1.17C512.785,313.504,512.371,313.875,511.91,314.18z"/>
	<path d="M423.71,323.45c-3.543-2.919-5.877-7.049-6.55-11.59c-0.18,0.896-0.28,1.807-0.3,2.72c-0.229,4.367,0.921,8.694,3.29,12.37
		C420.866,325.386,422.134,324.14,423.71,323.45z"/>
	<path d="M501.08,354.72c0.38-2.25,1.22-4.64,0.08-6.7c-1.271-2.3-4.51-3.3-7.48-3.88c-2.97-0.58-6.21-1.07-8.279-2.92
		c-1.033-1.06-1.878-2.288-2.5-3.63c-1.41-2.49-3.37-5-6.431-6.06c-4.87-1.71-10.52,0.74-15.72-0.11c-1.5-0.25-2.92-0.77-4.43-1
		c-2.545-0.372-5.142-0.125-7.57,0.72c-7.11,2.34-11.74,8.24-13.86,14.33c-2.119,6.09-2.17,12.52-2.84,18.84
		c-0.17,1.54-1.189,3.6-3,3.22c-0.189-2.47-0.42-5-1.939-7.17c-1.715-2.366-4.696-3.451-7.53-2.74
		c-0.84-0.188-1.587-0.666-2.11-1.35c0.11,0.917,0.11,1.843,0,2.76c-0.28,1.116-0.435,2.26-0.46,3.41
		c0.264,1.309,1.297,2.327,2.61,2.57c2.836-0.708,5.818,0.38,7.53,2.75c1.52,2.13,1.75,4.7,1.939,7.16c1.811,0.38,2.83-1.67,3-3.22
		c0.67-6.31,0.721-12.74,2.84-18.84c2.12-6.1,6.75-12,13.86-14.33c2.43-0.842,5.025-1.089,7.57-0.72c1.51,0.25,2.93,0.78,4.43,1
		c5.2,0.86,10.85-1.6,15.72,0.11c3.061,1.08,5,3.57,6.431,6.06c0.622,1.343,1.467,2.57,2.5,3.63c2.069,1.86,5.31,2.34,8.279,2.92
		c2.971,0.58,6,1.52,7.33,3.64C501,355.02,501.05,354.87,501.08,354.72z"/>
	<path d="M417.43,351.61c0.165-1.863,0.054-3.74-0.33-5.57c-0.293,1.933-0.356,3.893-0.189,5.84c0,0.5,0.109,1,0.18,1.49
		C417.2,352.78,417.35,352.2,417.43,351.61z"/>
</g>
<path fill="#444053" d="M368.49,511V492.95c0-0.281,0.229-0.51,0.51-0.51l0,0h2.05c0.282,0,0.51,0.229,0.51,0.51l0,0v7.51
	l8.32-7.709c0.577-0.48,1.435-0.404,1.916,0.174c0.193,0.232,0.304,0.523,0.314,0.826v16.35c-0.025,0.75-0.653,1.34-1.404,1.314
	c-0.303-0.01-0.594-0.121-0.826-0.314l-8.32-7.66v7.471c0,0.281-0.228,0.51-0.51,0.51l0,0H369
	C368.75,511.424,368.534,511.247,368.49,511z"/>
<path fill="#444053" d="M569.52,492.95V511c0.001,0.281-0.228,0.51-0.51,0.51c-0.003,0-0.007,0-0.01,0h-2
	c-0.281,0-0.51-0.229-0.51-0.51l0,0v-7.51l-8.32,7.699c-0.584,0.48-1.447,0.398-1.929-0.186c-0.189-0.23-0.299-0.516-0.312-0.814
	v-16.41c0.032-0.756,0.671-1.344,1.427-1.311c0.298,0.012,0.583,0.121,0.813,0.311l8.32,7.66v-7.459c0-0.283,0.229-0.512,0.51-0.512
	l0,0h2C569.274,492.463,569.504,492.676,569.52,492.95z"/>
<path fill="#444053" d="M465.61,511.78h-4.07c-1.104,0-2-0.895-2-2V494.84c0-1.105,0.896-2,2-2h4.07c1.104,0,2,0.895,2,2v14.939
	C467.61,510.885,466.715,511.78,465.61,511.78z M478.51,509.78V494.84c0-1.105-0.896-2-2-2H472.4c-1.105,0-2,0.895-2,2v14.939
	c0,1.105,0.895,2,2,2h4.069c1.104,0.021,2.018-0.855,2.04-1.959C478.51,509.807,478.51,509.793,478.51,509.78z"/>
<rect x="349" y="468.62" opacity="0.6" fill="#444053" enable-background="new    " width="240" height="2.67"/>
<circle fill="#444053" cx="423.11" cy="469.95" r="6.33"/>
<rect x="349" y="468.62" fill="#444053" width="74.11" height="2.67"/>
<ellipse fill="#FBB03B" cx="957.08" cy="758.541" rx="59.47" ry="11.44"/>
<ellipse fill="#3F3D56" cx="956.09" cy="753.68" rx="6.92" ry="9.061"/>
<ellipse fill="#3F3D56" cx="956.09" cy="742.6" rx="6.92" ry="9.061"/>
<ellipse fill="#3F3D56" cx="956.09" cy="731.53" rx="6.92" ry="9.061"/>
<ellipse fill="#3F3D56" cx="956.09" cy="720.45" rx="6.92" ry="9.061"/>
<ellipse fill="#3F3D56" cx="956.09" cy="709.37" rx="6.92" ry="9.061"/>
<ellipse fill="#3F3D56" cx="956.09" cy="698.291" rx="6.92" ry="9.06"/>
<ellipse fill="#3F3D56" cx="956.09" cy="687.21" rx="6.92" ry="9.06"/>
<path fill="#FBB03B" d="M982,611.411c0.944-1.209,1.806-2.479,2.58-3.801l-18.2-3l19.68,0.15c3.809-8.303,4.037-17.805,0.631-26.279
	L960.31,592.18l24.341-17.891c-9.173-15.857-29.463-21.277-45.321-12.105c-15.857,9.172-21.277,29.463-12.105,45.32
	c0.788,1.363,1.673,2.668,2.646,3.906c-1.467,1.861-2.733,3.873-3.78,6l23.62,12.27l-25.18-8.449
	c-3.592,10.615-1.583,22.326,5.34,31.139c-11.317,14.398-8.82,35.246,5.577,46.563c14.398,11.318,35.245,8.82,46.563-5.578
	c9.453-12.025,9.453-28.957,0-40.984c9.454-12.031,9.454-28.969,0-41L982,611.411z"/>
<path opacity="0.1" fill="#FBB03B" enable-background="new    " d="M922.78,631.911c-0.015,7.436,2.484,14.66,7.09,20.5
	c-11.317,14.398-8.82,35.244,5.577,46.563c14.398,11.316,35.245,8.82,46.563-5.578c9.453-12.025,9.453-28.959,0-40.984
	C986.45,646.78,922.78,628.19,922.78,631.911z"/>
<ellipse opacity="0.1" fill="#6C63FF" enable-background="new    " cx="290" cy="810.559" rx="99" ry="21"/>
<linearGradient id="SVGID_1_" gradientUnits="userSpaceOnUse" x1="321.645" y1="-24.5864" x2="321.645" y2="385.3818" gradientTransform="matrix(1 0 0 -1 -35 798.3398)">
	<stop  offset="0" style="stop-color:#808080;stop-opacity:0.25"/>
	<stop  offset="0.54" style="stop-color:#808080;stop-opacity:0.12"/>
	<stop  offset="1" style="stop-color:#808080;stop-opacity:0.1"/>
</linearGradient>
<path fill="url(#SVGID_1_)" d="M323.15,808.12c-2-0.73-4.141-0.609-6.23-0.84c-4.34-0.502-8.38-2.461-11.46-5.561
	c-1.98-2.002-3.538-4.383-4.58-7c0.66,0.24,1.32,0.49,2,0.762c-2-4.67,0.1-9.91,1.94-14.631c3.121-8,6.07-16.043,8.85-24.131
	c7-20.488,13-41.799,12.87-63.6c0-7.879-1.45-15.33-1.73-23.199c-0.21-5.84,0.69-11.67,0.65-17.52c0-0.82,0-1.631-0.06-2.451
	c3.625-3.174,5.572-7.852,5.27-12.66c-0.102-1.236-0.278-2.465-0.53-3.68c-0.354-2.109-0.821-4.199-1.399-6.26
	c-0.66-2.17-1.561-4.25-2.33-6.369c-1.49-4.111-2.5-8.391-3.771-12.57c0.471,0.047,0.931,0.172,1.36,0.369
	c-0.32-0.375-0.54-0.826-0.64-1.311c-0.747-2.66-1.15-5.406-1.2-8.17l0.85-0.379c0.383-2.699,0.244-5.445-0.41-8.09
	c0.48-4.291,1.23-8.611,1.69-12.881c0.17-1.6,0.1-3.609-1.37-4c-0.3-2.289-0.42-4.609-0.54-6.92
	c-0.42-8.061-0.837-16.117-1.25-24.17c-0.42-8.09-0.84-16.17-1-24.27c-0.11-5.141-0.17-10.461-1.39-15.381
	c0.211-2.357-0.03-4.732-0.71-7c-1.86-5.889-7.641-10.559-13.5-10.229c-1.748-2.502-3.908-4.686-6.39-6.461
	c1.17-2.619,2.57-5.32,3.72-7.439c9.38-3.051,16.24-12.301,16.24-23.301c0.015-4.025-0.929-7.998-2.75-11.59
	c0.173-0.441,0.319-0.893,0.44-1.35c0.502-2.16,0.346-4.42-0.45-6.49c-0.281-0.795-0.615-1.57-1-2.32c-0.26-0.5-0.54-1-0.83-1.48
	l-0.51-0.77c-0.31-0.471-0.63-0.92-1-1.359c-0.71-0.953-1.472-1.869-2.28-2.74c-0.995-1.078-2.094-2.057-3.279-2.92
	c-1.608-1.195-3.447-2.043-5.4-2.49c-1.129-0.224-2.279-0.327-3.43-0.311c-0.69,0-1.39,0-2.08,0.061c-1.4,0.079-2.79,0.18-4.18,0.17
	c-0.46,0-0.93,0-1.39-0.07c-2.447-0.326-4.867-0.831-7.24-1.51l-1.2-0.25c-0.41-0.08-0.81-0.15-1.22-0.2
	c-1.097-0.146-2.203-0.214-3.31-0.2h-1.11c-1.108,0.054-2.213,0.167-3.31,0.34l-1.1,0.17c-2.778,0.436-5.485,1.239-8.05,2.391
	c-0.33,0.149-0.67,0.319-1,0.5l-0.2,0.109c-0.27,0.141-0.54,0.291-0.8,0.451l-0.15,0.09l-0.85,0.539l-0.07,0.051
	c-7.94,5.34-12.63,15.459-13.82,25.5c-1.33,11.27,1,22.631,3.33,33.721l2.1,10c0.09,0.449,0.19,0.889,0.28,1.34
	c-2.953,2.422-5.224,5.572-6.59,9.139c-2,5-2.05,10.41-1.89,15.83c0,1.102,0.06,2.201,0.17,3.301c-0.25,2.08-0.47,4.17-0.61,6.27
	c-0.63,9.701,0.55,19.451,0.24,29.17c-0.24,7.49-1.37,15-0.82,22.441c0.48,6.6,2.25,13,4,19.369l2.52,9.08
	c0.082,0.471,0.301,0.904,0.63,1.25c0.414,0.277,0.92,0.383,1.41,0.289c-1.639,3.725-3.009,7.561-4.1,11.48
	c-0.754,2.4-1.25,4.875-1.48,7.381c-0.33,4.58,0.73,9.129,1.79,13.58c1.6,6.666,3.193,13.359,4.78,20.08
	c1.12,4.699,2.237,9.396,3.35,14.09c2.2,9.26,4.41,18.58,4.82,28.109c0.229,4.787-0.107,9.582-1,14.291
	c-2.885,14.098-3.305,28.588-1.24,42.828c1.669,12.016,4.375,23.863,8.09,35.41c0.81-0.43,1.63-0.83,2.47-1.199l-0.35,0.65
	c-1.153,2-2.22,4.049-3.2,6.15c-0.661,1.363-1.232,2.77-1.71,4.209c-1.28,4-1.48,8.26-1.66,12.471
	c-0.091,0.809-0.02,1.629,0.21,2.41c0.55,1.51,2.13,2.279,3.6,2.699c4.32,1.23,8.81,0.791,13.3,0.211
	c0.021,0.098,0.051,0.195,0.09,0.289c0.55,1.51,2.12,2.279,3.6,2.699c6.18,1.762,12.7,0.102,19.07-0.5
	c6.37-0.6,12.63-0.158,18.76-1.629c0.913-0.195,1.791-0.533,2.6-1c1.576-1.104,2.732-2.707,3.28-4.551
	c0.191-0.477,0.319-0.979,0.38-1.49C327,810.78,325.13,808.85,323.15,808.12z M302,715.51c-0.345,2.342-1.018,4.625-2,6.779
	c-4.811,10.23-8.26,21.045-10.26,32.17c-1.313,7.35-2.071,14.787-2.27,22.25c-0.1,5.5,0.11,11.26-2.18,16.201l0.83-0.131
	c-0.26,0.48-0.51,1-0.75,1.381l-0.12,0.219c-1.385-2.357-2.312-4.957-2.73-7.66c0-0.09-0.45-0.158-1.14-0.199
	c-2.827-15.797-3.807-31.867-2.92-47.891c0.014-1.943,0.282-3.877,0.8-5.75c0.51-1.609,1.37-3.08,2-4.639
	c0.999-2.621,1.671-5.355,2-8.141c1.089-7.119,1.511-14.322,1.26-21.52c-0.24-6.791,1.33-13.541,2.67-20.301
	c0.64-3.209,1.23-6.43,1.55-9.65l0.06-0.65c5.95,9.816,10.108,20.611,12.28,31.881C302.288,704.985,302.599,710.28,302,715.51z
	 M259.2,570.991l0.32,0.279c0.967,0.85,1.857,1.783,2.66,2.789c0.399,0.439,0.688,0.967,0.84,1.541c0.3,1.459-0.91,2.699-1.9,3.77
	c-0.43,0.465-0.834,0.951-1.21,1.461c-0.213-3.281-0.44-6.561-0.68-9.84H259.2z"/>
<path fill="#00A99D" d="M245.36,508.311l-1.1,8.488c-0.37,2.881-0.74,5.75-0.94,8.641c-0.67,9.621,0.57,19.279,0.25,28.92
	c-0.26,7.42-1.44,14.83-0.87,22.24c0.51,6.539,2.37,12.9,4.23,19.199l2.64,9c0.09,0.471,0.32,0.902,0.66,1.24
	c0.509,0.301,1.113,0.398,1.69,0.271l11.72-1.061c-0.75-3.439-1.58-7-2-10.531c-0.32-2.76-0.51-5.539-0.71-8.318
	c-0.62-8.66-1.33-17.32-2-26l-1.25-15.201c-0.53-6.6-1.08-13.23-2.74-19.641C253.274,519.084,249.976,513.147,245.36,508.311z"/>
<path fill="#00A99D" d="M266.24,797.331c-0.688,1.354-1.29,2.75-1.8,4.18c-1.34,3.949-1.54,8.189-1.74,12.359
	c-0.088,0.805-0.014,1.617,0.22,2.391c0.58,1.5,2.24,2.26,3.79,2.67c6.49,1.75,13.33,0.109,20-0.49s13.26-0.16,19.7-1.609
	c0.951-0.184,1.87-0.504,2.729-0.951c1.631-1.061,2.849-2.648,3.45-4.5c0.194-0.473,0.325-0.971,0.391-1.479
	c0.21-2.201-1.7-4.102-3.78-4.82c-2.08-0.721-4.35-0.611-6.54-0.83c-9.274-0.949-16.754-8.008-18.24-17.211
	c-0.08-0.48-10.84-0.189-12,0.43c-1.32,0.73-2.12,2.541-2.87,3.771C268.37,793.219,267.267,795.25,266.24,797.331z"/>
<path fill="#00A99D" d="M284.09,800.51c-0.692,1.348-1.293,2.74-1.8,4.17c-1.35,4-1.55,8.189-1.74,12.359
	c-0.093,0.805-0.018,1.617,0.22,2.391c0.57,1.5,2.23,2.26,3.78,2.68c6.49,1.74,13.34,0.1,20-0.5c6.66-0.6,13.271-0.16,19.7-1.609
	c0.955-0.193,1.876-0.531,2.73-1c1.633-1.059,2.851-2.648,3.449-4.5c0.194-0.475,0.325-0.973,0.391-1.48
	c0.21-2.189-1.7-4.1-3.78-4.82c-2.08-0.719-4.35-0.6-6.54-0.83c-9.269-0.951-16.747-8.002-18.24-17.199
	c-0.08-0.48-10.84-0.201-12,0.42c-1.33,0.73-2.13,2.539-2.88,3.77C286.24,796.389,285.12,798.43,284.09,800.51z"/>
<path fill="#454B69" d="M330.62,694.28c0.14,21.609-6.14,42.73-13.51,63c-2.92,8.041-6.017,16.01-9.29,23.91
	c-1.94,4.68-4.13,9.881-2.05,14.5c-6-2.279-12.1-3.619-18.41-2.57c2.4-4.9,2.17-10.6,2.28-16c0.204-7.4,0.993-14.773,2.36-22.049
	c2.118-11.074,5.749-21.805,10.79-31.891c1.019-2.127,1.723-4.391,2.09-6.721c0.82-5.139,0.18-10.42-0.89-15.51
	c-2.302-11.242-6.677-21.959-12.9-31.6l-0.06,0.641c-0.374,3.215-0.914,6.41-1.62,9.57c-1.41,6.689-3.06,13.389-2.81,20.119
	c0.261,7.137-0.181,14.281-1.32,21.33c-0.367,2.768-1.089,5.477-2.15,8.061c-0.69,1.549-1.59,3-2.13,4.609
	c-0.541,1.852-0.823,3.77-0.84,5.699c-0.8,16.271,0,32.791,3.32,48.74c-5.57-0.439-11.14,1.17-16.12,3.67
	c-3.894-11.416-6.739-23.166-8.5-35.1c-2.169-14.113-1.729-28.506,1.3-42.459c0.944-4.654,1.297-9.408,1.05-14.15
	c-0.43-9.451-2.75-18.691-5.06-27.871l-3.52-14c-1.667-6.666-3.333-13.303-5-19.91c-1.11-4.41-2.23-8.92-1.88-13.459
	c0.244-2.49,0.768-4.947,1.56-7.32c2.497-8.074,6.231-15.711,11.07-22.641c19.27,1.08,38.77-0.719,58-2.199
	c0.933-0.184,1.9-0.021,2.72,0.459c0.656,0.666,1.047,1.549,1.101,2.48l7.229,41c1.171,5.699,1.856,11.486,2.051,17.301
	c0,5.799-0.9,11.58-0.681,17.369C329.1,679.09,330.58,686.469,330.62,694.28z"/>
<path opacity="0.1" enable-background="new    " d="M291.05,669.991c-0.374,3.215-0.914,6.41-1.62,9.57
	c-4.19-7.25-8.71-14.32-12.57-21.75c-1-1.91-1.94-3.852-2.89-5.791l-2.85-5.801c-0.53-1.09-1.06-2.18-1.54-3.289
	c-0.782-1.594-1.382-3.271-1.79-5c1.4-0.26,4.86,3.52,5.9,4.51c2.122,2.102,4.125,4.318,6,6.641c2.278,2.582,4.37,5.322,6.26,8.199
	C288.37,661.192,290.096,665.491,291.05,669.991z"/>
<path fill="#EFB7B9" d="M307.1,471.081c0,0-10.7,17.049-8.72,20.619s-33.7-3.17-33.7-3.17s19.43-17.049,17.44-24.189
	C280.13,457.2,307.1,471.081,307.1,471.081z"/>
<circle fill="#EFB7B9" cx="297.59" cy="452.05" r="24.19"/>
<path fill="#00A99D" d="M307.46,488.959c-2.59-3.594-6.104-6.42-10.17-8.18c-2.343-0.838-4.766-1.436-7.23-1.779l-9.65-1.701
	c-2.36-0.42-4.89-0.809-7.09,0.16c-1.112,0.57-2.125,1.316-3,2.211c-3.35,3.109-6.6,6.52-10.81,8.32c-1.15,0.49-2.35,0.85-3.5,1.34
	c-4.71,2-8.23,6.26-10.22,11c-2.1,4.939-2.16,10.309-2,15.68c-0.003,1.854,0.182,3.703,0.55,5.52c0.481,1.73,1.093,3.422,1.83,5.061
	c1.33,3.506,2.445,7.088,3.34,10.73c2.5,9.566,4.58,19.232,6.24,29c0.141,1.398,0.552,2.756,1.21,4
	c0.932,1.242,2.06,2.326,3.34,3.209c1.015,0.834,1.949,1.762,2.79,2.77c0.419,0.412,0.731,0.92,0.91,1.48c0.31,1.439-1,2.68-2,3.73
	c-2.152,2.195-3.708,4.904-4.52,7.869c-0.501,0.609-0.758,1.383-0.72,2.17c0.208,0.549,0.287,1.137,0.23,1.721
	c-0.197,0.531-0.508,1.012-0.91,1.41c-0.934,1.217-1.298,2.775-1,4.279c7.496,3.258,15.518,5.135,23.68,5.541c2,0.1,4,0.1,6,0.34
	c1.42,0.18,2.82,0.469,4.24,0.641c2.061,0.193,4.132,0.246,6.2,0.158c10.77-0.219,21.85-0.488,31.74-4.76
	c0.93-5.07-1.08-10.24-2.341-15.24c-2-8-2.5-16.189-4-24.26c-1-5.51-2.5-10.939-3.35-16.49c-0.85-5.549-1-11.299,0.48-16.699
	c1.35-4.779,1.76-9.66,3.159-14.43c1.4-4.77,2.38-9.939,0.801-14.66C319.69,493.26,313.62,488.629,307.46,488.959z"/>
<path fill="#A26565" d="M319.34,439.219c1.18-4.289-1.14-8.76-3.899-12.25c-3-3.75-6.82-7.129-11.51-8.068
	c-3.81-0.771-7.76,0.158-11.64-0.15c-3.43-0.27-6.73-1.51-10.14-2c-3.094-0.334-6.22-0.217-9.28,0.35
	c-2.904,0.432-5.743,1.225-8.45,2.359c-10.3,4.57-16.33,15.83-17.73,27s1.05,22.43,3.49,33.42l2.21,9.941
	c2.3,10.35,4.6,20.738,5.21,31.318c0.61,10.58-0.53,21.441-4.88,31.102c14.068-7.557,24.968-19.898,30.73-34.791
	c1.56-4.09,2.72-8.34,4.46-12.359c1.49-3.461,3.4-6.74,4.72-10.27c1.492-3.984,2.208-8.217,2.11-12.471
	c-0.08-3.199-0.61-6.381-0.52-9.58c0.09-3.199,0.91-6.529,3.12-8.85c2-2.051,4.75-3,7.28-4.33c3.982-2.047,7.463-4.949,10.189-8.5
	c1.591-2.08,1.681-3,2.08-5.359C317.29,443.37,318.72,441.491,319.34,439.219z"/>
<path fill="#EFB7B9" d="M319.37,620.93c0.25,2.49-0.2,5,0.34,7.471c0.41,1.84,1.36,3.5,1.92,5.299
	c0.554,2.078,0.84,4.219,0.851,6.371c0.079,1.799-0.061,4-1.66,4.84c-0.7,0.369-1.54,0.369-2.271,0.689
	c-0.729,0.32-1.35,1.189-0.93,1.869c0.42,0.682,1.14,0.57,1.8,0.701c0.66,0.129,1.37,0.811,1,1.359
	c-0.15,0.18-0.354,0.311-0.58,0.371c-0.667,0.205-1.301,0.508-1.88,0.898c-0.576,0.42-0.873,1.125-0.77,1.83
	c0.147,0.607,0.759,0.979,1.365,0.832c0.084-0.021,0.167-0.053,0.244-0.092c-0.293,0.627-0.453,1.309-0.47,2
	c2.56,1.1,5.43-0.34,7.83-1.73c1.038-0.578,2.039-1.219,3-1.92c3.941-3.025,6.129-7.809,5.84-12.77
	c-0.114-1.227-0.305-2.445-0.57-3.65c-0.369-2.096-0.859-4.17-1.47-6.209c-0.69-2.15-1.63-4.201-2.44-6.311
	c-1.72-4.49-2.829-9.189-4.39-13.74c-0.104-0.471-0.369-0.893-0.75-1.189c-0.344-0.17-0.728-0.242-1.11-0.211
	c-1.75-0.092-3.505,0.07-5.21,0.48c-1,0.301-2.71,1-3.18,2s0.28,1.84,0.73,2.67C318.047,615.299,318.984,618.063,319.37,620.93z"/>
<path opacity="0.1" enable-background="new    " d="M317.74,499.42c0.514,0.525,0.944,1.125,1.279,1.779
	c3.44,6.25,3.48,13.721,3.641,20.85c0.18,8,0.62,16,1.06,24.051l1.311,24c0.13,2.289,0.25,4.58,0.58,6.85
	c1.54,0.391,1.6,2.391,1.43,4c-1.11,9.781-3.86,19.85-1,29.26c0.11,0.484,0.341,0.93,0.67,1.301
	c-1.452-0.455-3.006-0.477-4.47-0.061c-1.431,0.301-2.811,0.83-4.25,1.16c-1.82,0.41-3.88,0.59-5.12,2
	c-1.405-4.227-2.524-8.543-3.351-12.92c-0.68-4-0.869-8.119-2.489-11.82c-0.65-1.49-1.53-2.869-2.33-4.299
	c-4.19-7.48-6.25-15.932-8.26-24.271c-0.902-3.953-1.118-8.033-0.64-12.059c0.291-1.838,0.458-3.691,0.5-5.551
	c-0.122-1.963-0.379-3.914-0.77-5.84c-0.849-5.654-0.45-11.426,1.17-16.91c1.5-5.09,2.82-10.449,6-14.73
	C305.88,501.93,312.43,499.491,317.74,499.42z"/>
<path fill="#00A99D" d="M318.93,498.62c0.514,0.529,0.945,1.133,1.28,1.791c3.44,6.24,3.48,13.719,3.64,20.85
	c0.181,8,0.62,16,1.061,24l1.31,24c0.13,2.289,0.25,4.58,0.58,6.85c1.54,0.391,1.601,2.391,1.42,4c-1.1,9.779-3.85,19.84-1,29.26
	c0.11,0.482,0.341,0.93,0.67,1.301c-1.452-0.455-3.006-0.477-4.47-0.061c-1.43,0.301-2.81,0.83-4.25,1.15
	c-1.82,0.42-3.88,0.59-5.12,2c-1.4-4.246-2.51-8.582-3.319-12.98c-0.681-4-0.87-8.109-2.49-11.811
	c-0.704-1.471-1.481-2.906-2.33-4.299c-4.2-7.48-6.25-15.939-8.26-24.281c-0.902-3.953-1.119-8.031-0.64-12.059
	c0.753-3.77,0.661-7.66-0.27-11.391c-0.85-5.65-0.451-11.42,1.17-16.9c1.5-5.09,2.82-10.449,6-14.73
	C307.09,501.03,313.62,498.7,318.93,498.62z"/>
<g opacity="0.1">
	<path d="M315.44,426.969c-3-3.75-6.82-7.129-11.51-8.068c-3.81-0.771-7.76,0.158-11.64-0.15c-3.43-0.27-6.73-1.51-10.14-2
		c-3.094-0.334-6.22-0.217-9.28,0.35c-2.904,0.432-5.743,1.225-8.45,2.359c-1.462,0.656-2.859,1.449-4.17,2.371
		c2.41-0.938,4.915-1.607,7.47-2c3.057-0.566,6.18-0.686,9.27-0.35c3.42,0.439,6.71,1.67,10.15,1.939
		c3.87,0.311,7.82-0.611,11.64,0.15c4.69,0.939,8.53,4.33,11.5,8.08c2.77,3.479,5.08,7.949,3.909,12.25
		c-0.619,2.26-2.06,4.238-2.449,6.568c-0.391,2.33-0.49,3.281-2.09,5.361c-2.052,2.666-4.532,4.975-7.34,6.83
		c0.77-0.361,1.56-0.721,2.31-1.111c3.982-2.045,7.463-4.947,10.189-8.5c1.591-2.08,1.681-3,2.08-5.359
		c0.4-2.359,1.83-4.301,2.45-6.57C320.52,434.93,318.2,430.459,315.44,426.969z"/>
	<path d="M297.34,463.981c0.415-0.43,0.866-0.822,1.35-1.172c-2.31,1.121-4.74,2.102-6.51,4c-2.21,2.311-3,5.65-3.12,8.852
		c-0.12,3.199,0.45,6.379,0.52,9.57c0.098,4.256-0.618,8.492-2.11,12.479c-1.32,3.531-3.23,6.801-4.72,10.271
		c-1.73,4-2.89,8.26-4.45,12.35c-4.999,12.912-13.876,23.959-25.41,31.619c-0.06,0.131-0.11,0.27-0.17,0.4
		c14.068-7.557,24.968-19.896,30.73-34.789c1.56-4.092,2.72-8.342,4.46-12.361c1.49-3.459,3.4-6.74,4.72-10.27
		c1.492-3.984,2.208-8.217,2.11-12.471c-0.08-3.199-0.61-6.379-0.52-9.58C294.31,469.68,295.13,466.299,297.34,463.981z"/>
</g>
</svg>
